<svg width="223" height="63" viewBox="0 0 223 63" fill="none" xmlns="http://www.w3.org/2000/svg">
<path d="M75.9549 42.3813C73.4501 42.3813 71.1794 41.8429 69.1428 40.7661C67.1296 39.6659 65.5378 38.156 64.3673 36.2364C63.2203 34.2935 62.6468 32.1047 62.6468 29.6702C62.6468 27.2356 63.2203 25.0586 64.3673 23.139C65.5378 21.1961 67.1296 19.6862 69.1428 18.6093C71.1794 17.5091 73.4618 16.959 75.99 16.959C78.1202 16.959 80.0398 17.3336 81.7486 18.0826C83.4809 18.8317 84.9323 19.9086 86.1027 21.3131L82.4509 24.684C80.7889 22.7645 78.7289 21.8047 76.2709 21.8047C74.7493 21.8047 73.3916 22.1441 72.1977 22.823C71.0038 23.4784 70.0675 24.4031 69.3886 25.597C68.7332 26.7908 68.4054 28.1486 68.4054 29.6702C68.4054 31.1918 68.7332 32.5495 69.3886 33.7434C70.0675 34.9372 71.0038 35.8736 72.1977 36.5525C73.3916 37.2079 74.7493 37.5356 76.2709 37.5356C78.7289 37.5356 80.7889 36.5642 82.4509 34.6212L86.1027 37.9921C84.9323 39.4201 83.4809 40.5086 81.7486 41.2577C80.0164 42.0068 78.0851 42.3813 75.9549 42.3813ZM97.0404 22.7879C99.9665 22.7879 102.214 23.4902 103.782 24.8947C105.351 26.2758 106.135 28.371 106.135 31.1801V41.96H101.008V39.6073C99.9782 41.363 98.0587 42.2409 95.2496 42.2409C93.7982 42.2409 92.5341 41.9951 91.4573 41.5035C90.4039 41.0119 89.5963 40.333 89.0344 39.4669C88.4726 38.6008 88.1917 37.6176 88.1917 36.5173C88.1917 34.7617 88.8472 33.3805 90.1581 32.3739C91.4924 31.3673 93.5407 30.864 96.303 30.864H100.657C100.657 29.6702 100.294 28.7572 99.5686 28.1252C98.8429 27.4697 97.7544 27.142 96.303 27.142C95.2964 27.142 94.3015 27.3058 93.3183 27.6336C92.3585 27.9379 91.5392 28.3593 90.8604 28.8977L88.894 25.0703C89.924 24.3446 91.153 23.7828 92.5809 23.3848C94.0323 22.9869 95.5188 22.7879 97.0404 22.7879ZM96.619 38.5539C97.5554 38.5539 98.3864 38.3432 99.1121 37.9219C99.8378 37.4771 100.353 36.8334 100.657 35.9906V34.0594H96.8999C94.6526 34.0594 93.529 34.7968 93.529 36.2715C93.529 36.9738 93.7982 37.5356 94.3366 37.957C94.8984 38.355 95.6592 38.5539 96.619 38.5539ZM111.092 15.9056H116.57V41.96H111.092V15.9056ZM130.784 42.2409C128.77 42.2409 126.956 41.8312 125.341 41.0119C123.749 40.1692 122.497 39.0104 121.584 37.5356C120.694 36.0609 120.249 34.3871 120.249 32.5144C120.249 30.6416 120.694 28.9679 121.584 27.4931C122.497 26.0183 123.749 24.8713 125.341 24.052C126.956 23.2092 128.77 22.7879 130.784 22.7879C132.773 22.7879 134.506 23.2092 135.98 24.052C137.479 24.8713 138.567 26.0535 139.246 27.5985L134.997 29.8808C134.014 28.1486 132.598 27.2824 130.748 27.2824C129.32 27.2824 128.138 27.7506 127.202 28.687C126.266 29.6233 125.797 30.8991 125.797 32.5144C125.797 34.1296 126.266 35.4054 127.202 36.3418C128.138 37.2781 129.32 37.7463 130.748 37.7463C132.621 37.7463 134.037 36.8802 134.997 35.1479L139.246 37.4654C138.567 38.9636 137.479 40.134 135.98 40.9768C134.506 41.8195 132.773 42.2409 130.784 42.2409ZM151.74 32.3037L148.439 35.7448V41.96H142.786V17.3804H148.439V28.8625L159.325 17.3804H165.645L155.462 28.3358L166.242 41.96H159.606L151.74 32.3037ZM176.733 42.2409C174.72 42.2409 172.906 41.8312 171.29 41.0119C169.699 40.1692 168.446 39.0104 167.533 37.5356C166.644 36.0609 166.199 34.3871 166.199 32.5144C166.199 30.6416 166.644 28.9679 167.533 27.4931C168.446 26.0183 169.699 24.8713 171.29 24.052C172.906 23.2092 174.72 22.7879 176.733 22.7879C178.723 22.7879 180.455 23.2092 181.93 24.052C183.428 24.8713 184.517 26.0535 185.196 27.5985L180.947 29.8808C179.964 28.1486 178.547 27.2824 176.698 27.2824C175.27 27.2824 174.088 27.7506 173.152 28.687C172.215 29.6233 171.747 30.8991 171.747 32.5144C171.747 34.1296 172.215 35.4054 173.152 36.3418C174.088 37.2781 175.27 37.7463 176.698 37.7463C178.571 37.7463 179.987 36.8802 180.947 35.1479L185.196 37.4654C184.517 38.9636 183.428 40.134 181.93 40.9768C180.455 41.8195 178.723 42.2409 176.733 42.2409ZM195.969 22.7879C198.895 22.7879 201.143 23.4902 202.711 24.8947C204.279 26.2758 205.064 28.371 205.064 31.1801V41.96H199.937V39.6073C198.907 41.363 196.987 42.2409 194.178 42.2409C192.727 42.2409 191.463 41.9951 190.386 41.5035C189.333 41.0119 188.525 40.333 187.963 39.4669C187.401 38.6008 187.12 37.6176 187.12 36.5173C187.12 34.7617 187.776 33.3805 189.087 32.3739C190.421 31.3673 192.469 30.864 195.232 30.864H199.586C199.586 29.6702 199.223 28.7572 198.497 28.1252C197.772 27.4697 196.683 27.142 195.232 27.142C194.225 27.142 193.23 27.3058 192.247 27.6336C191.287 27.9379 190.468 28.3593 189.789 28.8977L187.823 25.0703C188.853 24.3446 190.082 23.7828 191.51 23.3848C192.961 22.9869 194.448 22.7879 195.969 22.7879ZM195.548 38.5539C196.484 38.5539 197.315 38.3432 198.041 37.9219C198.767 37.4771 199.282 36.8334 199.586 35.9906V34.0594H195.829C193.581 34.0594 192.458 34.7968 192.458 36.2715C192.458 36.9738 192.727 37.5356 193.265 37.957C193.827 38.355 194.588 38.5539 195.548 38.5539ZM210.021 15.9056H215.499V41.96H210.021V15.9056Z" fill="url(#paint0_linear)"/>
<g clip-path="url(#clip0)">
<path d="M44.1856 23.6163C42.2898 24.0286 40.654 25.0863 39.8876 26.9104C39.426 28.0173 38.7806 30.8767 37.0103 30.1372C36.1633 29.7876 36.1767 28.5731 36.2753 27.8157C36.486 26.2605 37.1851 24.8398 37.6647 23.3608C38.1577 21.8281 38.5834 20.2864 38.8882 18.6999C39.91 13.4473 39.6277 7.39697 35.9123 3.19761C35.2849 2.48053 33.7028 0.822298 32.6586 0.786444C32.0132 0.768517 32.6496 1.53041 32.8289 1.78587C33.1919 2.31023 33.4967 2.8794 33.7297 3.47547C36.477 10.4849 29.7051 15.8226 25.2548 19.9771C23.1215 21.9715 21.4185 24.0869 19.8857 26.5563C19.7333 26.7938 19.3972 27.5916 18.9625 27.4258C18.4471 27.2286 18.3933 26.0499 18.232 25.6107C17.9272 24.7681 17.4566 23.8493 16.8516 23.1905C15.6819 21.9088 14.046 21.0438 12.2758 21.1603C12.2085 21.1648 12.0158 21.1962 11.7783 21.25C11.4063 21.3306 10.4114 21.4606 10.6803 22.0611C10.8192 22.3704 11.227 22.3435 11.5184 22.4286C15.2561 23.576 15.1709 27.493 14.5659 30.6391C13.4724 36.3668 10.4427 41.7807 12.594 47.6697C15.1306 54.6118 23.0722 58.9456 30.2788 57.7535C32.2463 57.4308 34.514 56.7944 36.2798 55.8443C38.1577 54.8314 40.2148 53.4466 41.6803 51.8869C43.5671 49.8836 44.7682 47.3156 45.1222 44.5952C45.539 41.449 44.5351 38.4821 43.6209 35.5108C42.5184 31.9254 41.25 26.0723 45.8304 24.3199C46.0544 24.2303 46.5026 24.1631 46.6595 23.9255C47.2421 23.0561 44.4455 23.5625 44.1856 23.6163V23.6163Z" fill="#ED6C30"/>
<path d="M30.5345 48.2261C31.4846 49.0238 32.8157 48.6339 33.7121 47.9527C34.1916 47.5897 34.6039 47.1236 34.8728 46.5813C34.9849 46.3482 35.1148 46.0524 35.1148 45.788C35.1148 45.4339 34.9042 45.0844 34.9938 44.7214C35.7468 44.5735 36.679 46.7381 36.7731 47.2401C37.526 51.1974 33.7972 54.4601 30.1984 55.092C24.1257 56.1542 20.6344 50.8344 21.3336 46.1107C21.7683 43.1707 23.7402 41.1494 25.7481 39.1327C27.4108 37.461 28.9525 36.0268 29.4903 33.8532C29.5844 33.4678 29.562 32.8762 29.4499 32.4952C29.3558 32.1681 29.1766 31.8678 29.1676 31.5137C29.1407 30.7698 29.8623 31.7423 30.0281 31.9305C32.0269 34.1848 32.5961 37.5148 32.0628 40.4279C31.7177 42.3102 30.3732 43.6547 29.9026 45.4564C29.6292 46.4827 29.6561 47.4821 30.5345 48.2261V48.2261Z" fill="#FCC21B"/>
</g>
<defs>
<linearGradient id="paint0_linear" x1="-31.5107" y1="-23.5509" x2="267.843" y2="72.1937" gradientUnits="userSpaceOnUse">
<stop stop-color="#F5F869"/>
<stop offset="1" stop-color="#EA5C5C"/>
</linearGradient>
<clipPath id="clip0">
<rect width="57.3659" height="57.3659" fill="white" transform="translate(0 0.688477)"/>
</clipPath>
</defs>
</svg>
